<?xml version="1.0" encoding="UTF-8" standalone="no"?>
<!DOCTYPE svg PUBLIC "-//W3C//DTD SVG 1.1//EN"
 "http://www.w3.org/Graphics/SVG/1.1/DTD/svg11.dtd">
<!-- Generated by graphviz version 2.47.0 (20210316.0004)
 -->
<!-- Title: dependencies Pages: 1 -->
<svg width="1963pt" height="211pt"
 viewBox="0.00 0.00 1963.00 211.00" xmlns="http://www.w3.org/2000/svg" xmlns:xlink="http://www.w3.org/1999/xlink">
<g id="graph0" class="graph" transform="scale(1 1) rotate(0) translate(4 207)">
<title>dependencies</title>
<polygon fill="white" stroke="transparent" points="-4,4 -4,-207 1959,-207 1959,4 -4,4"/>
<text text-anchor="start" x="956.51" y="-42.4" font-family="Times-12" font-weight="bold" font-size="14.00">Legend</text>
<polygon fill="#ffffb3" stroke="transparent" points="743.5,-10 743.5,-30 763.5,-30 763.5,-10 743.5,-10"/>
<text text-anchor="start" x="767.13" y="-15.4" font-family="Times-12" font-size="14.00"> &#160;Declarations</text>
<polygon fill="#8dd3c7" stroke="transparent" points="856.5,-10 856.5,-30 876.5,-30 876.5,-10 856.5,-10"/>
<text text-anchor="start" x="880.23" y="-15.4" font-family="Times-12" font-size="14.00"> &#160;Module</text>
<polygon fill="#80b1d3" stroke="transparent" points="942.5,-10 942.5,-30 962.5,-30 962.5,-10 942.5,-10"/>
<text text-anchor="start" x="966.28" y="-15.4" font-family="Times-12" font-size="14.00"> &#160;Bootstrap</text>
<polygon fill="#fdb462" stroke="transparent" points="1039.5,-10 1039.5,-30 1059.5,-30 1059.5,-10 1039.5,-10"/>
<text text-anchor="start" x="1063.17" y="-15.4" font-family="Times-12" font-size="14.00"> &#160;Providers</text>
<polygon fill="#fb8072" stroke="transparent" points="1135.5,-10 1135.5,-30 1155.5,-30 1155.5,-10 1135.5,-10"/>
<text text-anchor="start" x="1159.23" y="-15.4" font-family="Times-12" font-size="14.00"> &#160;Exports</text>
<g id="clust1" class="cluster">
<title>cluster_TicketModule</title>
<polygon fill="none" stroke="black" stroke-dasharray="1,5" points="8,-70 8,-195 1947,-195 1947,-70 8,-70"/>
</g>
<g id="clust2" class="cluster">
<title>cluster_TicketModule_declarations</title>
<polygon fill="none" stroke="black" points="296,-78 296,-130 1939,-130 1939,-78 296,-78"/>
</g>
<g id="clust13" class="cluster">
<title>cluster_TicketModule_imports</title>
<polygon fill="none" stroke="black" points="16,-78 16,-130 288,-130 288,-78 16,-78"/>
</g>
<!-- CommentComponent -->
<g id="node1" class="node">
<title>CommentComponent</title>
<polygon fill="#ffffb3" stroke="black" points="1931.06,-122 1794.94,-122 1794.94,-86 1931.06,-86 1931.06,-122"/>
<text text-anchor="middle" x="1863" y="-99.8" font-family="Times,serif" font-size="14.00">CommentComponent</text>
</g>
<!-- TicketModule -->
<g id="node11" class="node">
<title>TicketModule</title>
<polygon fill="#8dd3c7" stroke="black" points="1036.81,-187 1033.81,-191 1012.81,-191 1009.81,-187 941.19,-187 941.19,-151 1036.81,-151 1036.81,-187"/>
<text text-anchor="middle" x="989" y="-164.8" font-family="Times,serif" font-size="14.00">TicketModule</text>
</g>
<!-- CommentComponent&#45;&gt;TicketModule -->
<g id="edge1" class="edge">
<title>CommentComponent&#45;&gt;TicketModule</title>
<path fill="none" stroke="black" d="M1863,-122.09C1863,-145.13 1863,-182 1863,-182 1863,-182 1046.92,-182 1046.92,-182"/>
<polygon fill="black" stroke="black" points="1046.92,-178.5 1036.92,-182 1046.92,-185.5 1046.92,-178.5"/>
</g>
<!-- EditAttachmentsComponent -->
<g id="node2" class="node">
<title>EditAttachmentsComponent</title>
<polygon fill="#ffffb3" stroke="black" points="1776.92,-122 1601.08,-122 1601.08,-86 1776.92,-86 1776.92,-122"/>
<text text-anchor="middle" x="1689" y="-99.8" font-family="Times,serif" font-size="14.00">EditAttachmentsComponent</text>
</g>
<!-- EditAttachmentsComponent&#45;&gt;TicketModule -->
<g id="edge2" class="edge">
<title>EditAttachmentsComponent&#45;&gt;TicketModule</title>
<path fill="none" stroke="black" d="M1689,-122.28C1689,-143.32 1689,-175 1689,-175 1689,-175 1046.84,-175 1046.84,-175"/>
<polygon fill="black" stroke="black" points="1046.84,-171.5 1036.84,-175 1046.84,-178.5 1046.84,-171.5"/>
</g>
<!-- FaqViewComponent -->
<g id="node3" class="node">
<title>FaqViewComponent</title>
<polygon fill="#ffffb3" stroke="black" points="1583.15,-122 1450.85,-122 1450.85,-86 1583.15,-86 1583.15,-122"/>
<text text-anchor="middle" x="1517" y="-99.8" font-family="Times,serif" font-size="14.00">FaqViewComponent</text>
</g>
<!-- FaqViewComponent&#45;&gt;TicketModule -->
<g id="edge3" class="edge">
<title>FaqViewComponent&#45;&gt;TicketModule</title>
<path fill="none" stroke="black" d="M1517,-122.11C1517,-141.34 1517,-169 1517,-169 1517,-169 1046.79,-169 1046.79,-169"/>
<polygon fill="black" stroke="black" points="1046.79,-165.5 1036.79,-169 1046.79,-172.5 1046.79,-165.5"/>
</g>
<!-- ListingComponent -->
<g id="node4" class="node">
<title>ListingComponent</title>
<polygon fill="#ffffb3" stroke="black" points="1432.5,-122 1311.5,-122 1311.5,-86 1432.5,-86 1432.5,-122"/>
<text text-anchor="middle" x="1372" y="-99.8" font-family="Times,serif" font-size="14.00">ListingComponent</text>
</g>
<!-- ListingComponent&#45;&gt;TicketModule -->
<g id="edge4" class="edge">
<title>ListingComponent&#45;&gt;TicketModule</title>
<path fill="none" stroke="black" d="M1372,-122.02C1372,-139.37 1372,-163 1372,-163 1372,-163 1046.73,-163 1046.73,-163"/>
<polygon fill="black" stroke="black" points="1046.73,-159.5 1036.73,-163 1046.73,-166.5 1046.73,-159.5"/>
</g>
<!-- MessageComponent -->
<g id="node5" class="node">
<title>MessageComponent</title>
<polygon fill="#ffffb3" stroke="black" points="1293.31,-122 1162.69,-122 1162.69,-86 1293.31,-86 1293.31,-122"/>
<text text-anchor="middle" x="1228" y="-99.8" font-family="Times,serif" font-size="14.00">MessageComponent</text>
</g>
<!-- MessageComponent&#45;&gt;TicketModule -->
<g id="edge5" class="edge">
<title>MessageComponent&#45;&gt;TicketModule</title>
<path fill="none" stroke="black" d="M1228,-122.24C1228,-137.57 1228,-157 1228,-157 1228,-157 1046.79,-157 1046.79,-157"/>
<polygon fill="black" stroke="black" points="1046.79,-153.5 1036.79,-157 1046.79,-160.5 1046.79,-153.5"/>
</g>
<!-- SubmitFaqComponent -->
<g id="node6" class="node">
<title>SubmitFaqComponent</title>
<polygon fill="#ffffb3" stroke="black" points="1144.28,-122 1001.72,-122 1001.72,-86 1144.28,-86 1144.28,-122"/>
<text text-anchor="middle" x="1073" y="-99.8" font-family="Times,serif" font-size="14.00">SubmitFaqComponent</text>
</g>
<!-- SubmitFaqComponent&#45;&gt;TicketModule -->
<g id="edge6" class="edge">
<title>SubmitFaqComponent&#45;&gt;TicketModule</title>
<path fill="none" stroke="black" d="M1019.13,-122.11C1019.13,-122.11 1019.13,-140.99 1019.13,-140.99"/>
<polygon fill="black" stroke="black" points="1015.63,-140.99 1019.13,-150.99 1022.63,-140.99 1015.63,-140.99"/>
</g>
<!-- SubmitTicketComponent -->
<g id="node7" class="node">
<title>SubmitTicketComponent</title>
<polygon fill="#ffffb3" stroke="black" points="983.55,-122 826.45,-122 826.45,-86 983.55,-86 983.55,-122"/>
<text text-anchor="middle" x="905" y="-99.8" font-family="Times,serif" font-size="14.00">SubmitTicketComponent</text>
</g>
<!-- SubmitTicketComponent&#45;&gt;TicketModule -->
<g id="edge7" class="edge">
<title>SubmitTicketComponent&#45;&gt;TicketModule</title>
<path fill="none" stroke="black" d="M962.56,-122.11C962.56,-122.11 962.56,-140.99 962.56,-140.99"/>
<polygon fill="black" stroke="black" points="959.06,-140.99 962.56,-150.99 966.06,-140.99 959.06,-140.99"/>
</g>
<!-- TicketListComponent -->
<g id="node8" class="node">
<title>TicketListComponent</title>
<polygon fill="#ffffb3" stroke="black" points="808.37,-122 669.63,-122 669.63,-86 808.37,-86 808.37,-122"/>
<text text-anchor="middle" x="739" y="-99.8" font-family="Times,serif" font-size="14.00">TicketListComponent</text>
</g>
<!-- TicketListComponent&#45;&gt;TicketModule -->
<g id="edge8" class="edge">
<title>TicketListComponent&#45;&gt;TicketModule</title>
<path fill="none" stroke="black" d="M739,-122.24C739,-137.57 739,-157 739,-157 739,-157 931.09,-157 931.09,-157"/>
<polygon fill="black" stroke="black" points="931.09,-160.5 941.09,-157 931.09,-153.5 931.09,-160.5"/>
</g>
<!-- TicketViewComponent -->
<g id="node9" class="node">
<title>TicketViewComponent</title>
<polygon fill="#ffffb3" stroke="black" points="651.91,-122 504.09,-122 504.09,-86 651.91,-86 651.91,-122"/>
<text text-anchor="middle" x="578" y="-99.8" font-family="Times,serif" font-size="14.00">TicketViewComponent</text>
</g>
<!-- TicketViewComponent&#45;&gt;TicketModule -->
<g id="edge9" class="edge">
<title>TicketViewComponent&#45;&gt;TicketModule</title>
<path fill="none" stroke="black" d="M578,-122.02C578,-139.37 578,-163 578,-163 578,-163 931.05,-163 931.05,-163"/>
<polygon fill="black" stroke="black" points="931.05,-166.5 941.05,-163 931.05,-159.5 931.05,-166.5"/>
</g>
<!-- ViewAttachmentsComponent -->
<g id="node10" class="node">
<title>ViewAttachmentsComponent</title>
<polygon fill="#ffffb3" stroke="black" points="486.41,-122 303.59,-122 303.59,-86 486.41,-86 486.41,-122"/>
<text text-anchor="middle" x="395" y="-99.8" font-family="Times,serif" font-size="14.00">ViewAttachmentsComponent</text>
</g>
<!-- ViewAttachmentsComponent&#45;&gt;TicketModule -->
<g id="edge10" class="edge">
<title>ViewAttachmentsComponent&#45;&gt;TicketModule</title>
<path fill="none" stroke="black" d="M395,-122.11C395,-141.34 395,-169 395,-169 395,-169 931.14,-169 931.14,-169"/>
<polygon fill="black" stroke="black" points="931.14,-172.5 941.14,-169 931.14,-165.5 931.14,-172.5"/>
</g>
<!-- SharedModule -->
<g id="node12" class="node">
<title>SharedModule</title>
<polygon fill="#8dd3c7" stroke="black" points="280.42,-122 277.42,-126 256.42,-126 253.42,-122 181.58,-122 181.58,-86 280.42,-86 280.42,-122"/>
<text text-anchor="middle" x="231" y="-99.8" font-family="Times,serif" font-size="14.00">SharedModule</text>
</g>
<!-- SharedModule&#45;&gt;TicketModule -->
<g id="edge11" class="edge">
<title>SharedModule&#45;&gt;TicketModule</title>
<path fill="none" stroke="black" d="M231,-122.28C231,-143.32 231,-175 231,-175 231,-175 931.3,-175 931.3,-175"/>
<polygon fill="black" stroke="black" points="931.3,-178.5 941.3,-175 931.3,-171.5 931.3,-178.5"/>
</g>
<!-- TicketRoutingModule -->
<g id="node13" class="node">
<title>TicketRoutingModule</title>
<polygon fill="#8dd3c7" stroke="black" points="164.43,-122 161.43,-126 140.43,-126 137.43,-122 23.57,-122 23.57,-86 164.43,-86 164.43,-122"/>
<text text-anchor="middle" x="94" y="-99.8" font-family="Times,serif" font-size="14.00">TicketRoutingModule</text>
</g>
<!-- TicketRoutingModule&#45;&gt;TicketModule -->
<g id="edge12" class="edge">
<title>TicketRoutingModule&#45;&gt;TicketModule</title>
<path fill="none" stroke="black" d="M94,-122.09C94,-145.13 94,-182 94,-182 94,-182 931.2,-182 931.2,-182"/>
<polygon fill="black" stroke="black" points="931.2,-185.5 941.2,-182 931.2,-178.5 931.2,-185.5"/>
</g>
</g>
</svg>
