<?xml version="1.0" encoding="UTF-8" standalone="no"?>
<!DOCTYPE svg PUBLIC "-//W3C//DTD SVG 1.1//EN"
 "http://www.w3.org/Graphics/SVG/1.1/DTD/svg11.dtd">
<!-- Generated by graphviz version 2.47.0 (20210316.0004)
 -->
<!-- Title: dependencies Pages: 1 -->
<svg width="871pt" height="284pt"
 viewBox="0.00 0.00 871.00 284.00" xmlns="http://www.w3.org/2000/svg" xmlns:xlink="http://www.w3.org/1999/xlink">
<g id="graph0" class="graph" transform="scale(1 1) rotate(0) translate(4 280)">
<title>dependencies</title>
<polygon fill="white" stroke="transparent" points="-4,4 -4,-280 867,-280 867,4 -4,4"/>
<text text-anchor="start" x="410.51" y="-42.4" font-family="Times-12" font-weight="bold" font-size="14.00">Legend</text>
<polygon fill="#ffffb3" stroke="transparent" points="197.5,-10 197.5,-30 217.5,-30 217.5,-10 197.5,-10"/>
<text text-anchor="start" x="221.13" y="-15.4" font-family="Times-12" font-size="14.00"> &#160;Declarations</text>
<polygon fill="#8dd3c7" stroke="transparent" points="310.5,-10 310.5,-30 330.5,-30 330.5,-10 310.5,-10"/>
<text text-anchor="start" x="334.23" y="-15.4" font-family="Times-12" font-size="14.00"> &#160;Module</text>
<polygon fill="#80b1d3" stroke="transparent" points="396.5,-10 396.5,-30 416.5,-30 416.5,-10 396.5,-10"/>
<text text-anchor="start" x="420.28" y="-15.4" font-family="Times-12" font-size="14.00"> &#160;Bootstrap</text>
<polygon fill="#fdb462" stroke="transparent" points="493.5,-10 493.5,-30 513.5,-30 513.5,-10 493.5,-10"/>
<text text-anchor="start" x="517.17" y="-15.4" font-family="Times-12" font-size="14.00"> &#160;Providers</text>
<polygon fill="#fb8072" stroke="transparent" points="589.5,-10 589.5,-30 609.5,-30 609.5,-10 589.5,-10"/>
<text text-anchor="start" x="613.23" y="-15.4" font-family="Times-12" font-size="14.00"> &#160;Exports</text>
<g id="clust1" class="cluster">
<title>cluster_AppModule</title>
<polygon fill="none" stroke="black" stroke-dasharray="1,5" points="8,-70 8,-268 855,-268 855,-70 8,-70"/>
</g>
<g id="clust2" class="cluster">
<title>cluster_AppModule_declarations</title>
<polygon fill="none" stroke="black" points="725,-78 725,-130 847,-130 847,-78 725,-78"/>
</g>
<g id="clust4" class="cluster">
<title>cluster_AppModule_imports</title>
<polygon fill="none" stroke="black" points="16,-78 16,-130 717,-130 717,-78 16,-78"/>
</g>
<g id="clust6" class="cluster">
<title>cluster_AppModule_bootstrap</title>
<polygon fill="none" stroke="black" points="346,-208 346,-260 470,-260 470,-208 346,-208"/>
</g>
<!-- AppComponent -->
<g id="node1" class="node">
<title>AppComponent</title>
<polygon fill="#ffffb3" stroke="black" points="838.94,-122 733.06,-122 733.06,-86 838.94,-86 838.94,-122"/>
<text text-anchor="middle" x="786" y="-99.8" font-family="Times,serif" font-size="14.00">AppComponent</text>
</g>
<!-- AppModule -->
<g id="node2" class="node">
<title>AppModule</title>
<polygon fill="#8dd3c7" stroke="black" points="449.66,-187 446.66,-191 425.66,-191 422.66,-187 366.34,-187 366.34,-151 449.66,-151 449.66,-187"/>
<text text-anchor="middle" x="408" y="-164.8" font-family="Times,serif" font-size="14.00">AppModule</text>
</g>
<!-- AppComponent&#45;&gt;AppModule -->
<g id="edge1" class="edge">
<title>AppComponent&#45;&gt;AppModule</title>
<path fill="none" stroke="black" d="M786,-122.29C786,-144.21 786,-178 786,-178 786,-178 459.9,-178 459.9,-178"/>
<polygon fill="black" stroke="black" points="459.9,-174.5 449.9,-178 459.9,-181.5 459.9,-174.5"/>
</g>
<!-- AppComponent  -->
<g id="node9" class="node">
<title>AppComponent </title>
<polygon fill="#80b1d3" stroke="black" points="462.44,-252 353.56,-252 353.56,-216 462.44,-216 462.44,-252"/>
<text text-anchor="middle" x="408" y="-229.8" font-family="Times,serif" font-size="14.00">AppComponent </text>
</g>
<!-- AppModule&#45;&gt;AppComponent  -->
<g id="edge8" class="edge">
<title>AppModule&#45;&gt;AppComponent </title>
<path fill="none" stroke="black" stroke-dasharray="1,5" d="M408,-187.11C408,-187.11 408,-205.99 408,-205.99"/>
<polygon fill="black" stroke="black" points="404.5,-205.99 408,-215.99 411.5,-205.99 404.5,-205.99"/>
</g>
<!-- AppRoutingModule -->
<g id="node3" class="node">
<title>AppRoutingModule</title>
<polygon fill="#8dd3c7" stroke="black" points="709.27,-122 706.27,-126 685.27,-126 682.27,-122 580.73,-122 580.73,-86 709.27,-86 709.27,-122"/>
<text text-anchor="middle" x="645" y="-99.8" font-family="Times,serif" font-size="14.00">AppRoutingModule</text>
</g>
<!-- AppRoutingModule&#45;&gt;AppModule -->
<g id="edge2" class="edge">
<title>AppRoutingModule&#45;&gt;AppModule</title>
<path fill="none" stroke="black" d="M645,-122.11C645,-141.34 645,-169 645,-169 645,-169 459.83,-169 459.83,-169"/>
<polygon fill="black" stroke="black" points="459.83,-165.5 449.83,-169 459.83,-172.5 459.83,-165.5"/>
</g>
<!-- CoreModule -->
<g id="node4" class="node">
<title>CoreModule</title>
<polygon fill="#8dd3c7" stroke="black" points="562.26,-122 559.26,-126 538.26,-126 535.26,-122 475.74,-122 475.74,-86 562.26,-86 562.26,-122"/>
<text text-anchor="middle" x="519" y="-99.8" font-family="Times,serif" font-size="14.00">CoreModule</text>
</g>
<!-- CoreModule&#45;&gt;AppModule -->
<g id="edge3" class="edge">
<title>CoreModule&#45;&gt;AppModule</title>
<path fill="none" stroke="black" d="M519,-122.03C519,-138.4 519,-160 519,-160 519,-160 459.96,-160 459.96,-160"/>
<polygon fill="black" stroke="black" points="459.96,-156.5 449.96,-160 459.96,-163.5 459.96,-156.5"/>
</g>
<!-- CourseModule -->
<g id="node5" class="node">
<title>CourseModule</title>
<polygon fill="#8dd3c7" stroke="black" points="457.71,-122 454.71,-126 433.71,-126 430.71,-122 358.29,-122 358.29,-86 457.71,-86 457.71,-122"/>
<text text-anchor="middle" x="408" y="-99.8" font-family="Times,serif" font-size="14.00">CourseModule</text>
</g>
<!-- CourseModule&#45;&gt;AppModule -->
<g id="edge4" class="edge">
<title>CourseModule&#45;&gt;AppModule</title>
<path fill="none" stroke="black" d="M408,-122.11C408,-122.11 408,-140.99 408,-140.99"/>
<polygon fill="black" stroke="black" points="404.5,-140.99 408,-150.99 411.5,-140.99 404.5,-140.99"/>
</g>
<!-- SharedModule -->
<g id="node6" class="node">
<title>SharedModule</title>
<polygon fill="#8dd3c7" stroke="black" points="340.42,-122 337.42,-126 316.42,-126 313.42,-122 241.58,-122 241.58,-86 340.42,-86 340.42,-122"/>
<text text-anchor="middle" x="291" y="-99.8" font-family="Times,serif" font-size="14.00">SharedModule</text>
</g>
<!-- SharedModule&#45;&gt;AppModule -->
<g id="edge5" class="edge">
<title>SharedModule&#45;&gt;AppModule</title>
<path fill="none" stroke="black" d="M291,-122.03C291,-138.4 291,-160 291,-160 291,-160 356.09,-160 356.09,-160"/>
<polygon fill="black" stroke="black" points="356.09,-163.5 366.09,-160 356.09,-156.5 356.09,-163.5"/>
</g>
<!-- TicketModule -->
<g id="node7" class="node">
<title>TicketModule</title>
<polygon fill="#8dd3c7" stroke="black" points="223.81,-122 220.81,-126 199.81,-126 196.81,-122 128.19,-122 128.19,-86 223.81,-86 223.81,-122"/>
<text text-anchor="middle" x="176" y="-99.8" font-family="Times,serif" font-size="14.00">TicketModule</text>
</g>
<!-- TicketModule&#45;&gt;AppModule -->
<g id="edge6" class="edge">
<title>TicketModule&#45;&gt;AppModule</title>
<path fill="none" stroke="black" d="M176,-122.11C176,-141.34 176,-169 176,-169 176,-169 356.26,-169 356.26,-169"/>
<polygon fill="black" stroke="black" points="356.26,-172.5 366.26,-169 356.26,-165.5 356.26,-172.5"/>
</g>
<!-- UserModule -->
<g id="node8" class="node">
<title>UserModule</title>
<polygon fill="#8dd3c7" stroke="black" points="109.98,-122 106.98,-126 85.98,-126 82.98,-122 24.02,-122 24.02,-86 109.98,-86 109.98,-122"/>
<text text-anchor="middle" x="67" y="-99.8" font-family="Times,serif" font-size="14.00">UserModule</text>
</g>
<!-- UserModule&#45;&gt;AppModule -->
<g id="edge7" class="edge">
<title>UserModule&#45;&gt;AppModule</title>
<path fill="none" stroke="black" d="M67,-122.29C67,-144.21 67,-178 67,-178 67,-178 356.19,-178 356.19,-178"/>
<polygon fill="black" stroke="black" points="356.19,-181.5 366.19,-178 356.19,-174.5 356.19,-181.5"/>
</g>
</g>
</svg>
